<?xml version="1.0" encoding="UTF-8" standalone="no"?>
<!DOCTYPE svg PUBLIC "-//W3C//DTD SVG 1.1//EN"
 "http://www.w3.org/Graphics/SVG/1.1/DTD/svg11.dtd">
<!-- Generated by graphviz version 2.48.0 (0)
 -->
<!-- Pages: 1 -->
<svg width="3316pt" height="325pt"
 viewBox="0.00 0.00 3316.00 325.00" xmlns="http://www.w3.org/2000/svg" xmlns:xlink="http://www.w3.org/1999/xlink">
<g id="graph0" class="graph" transform="scale(1 1) rotate(0) translate(4 321)">
<polygon fill="white" stroke="transparent" points="-4,4 -4,-321 3312,-321 3312,4 -4,4"/>
<!-- 1 -->
<g id="node1" class="node">
<title>1</title>
<polygon fill="#fa1f01" stroke="#fa1f01" points="2221.5,-317 2171.5,-317 2171.5,-276 2221.5,-276 2221.5,-317"/>
<text text-anchor="middle" x="2196.5" y="-305" font-family="Arial" font-size="10.00" fill="#ffffff">main</text>
<text text-anchor="middle" x="2196.5" y="-294" font-family="Arial" font-size="10.00" fill="#ffffff">96.97%</text>
<text text-anchor="middle" x="2196.5" y="-283" font-family="Arial" font-size="10.00" fill="#ffffff">(0.00%)</text>
</g>
<!-- 2 -->
<g id="node2" class="node">
<title>2</title>
<polygon fill="#dfbe05" stroke="#dfbe05" points="1181.5,-236 413.5,-236 413.5,-184 1181.5,-184 1181.5,-236"/>
<text text-anchor="middle" x="797.5" y="-224" font-family="Arial" font-size="10.00" fill="#ffffff">TAVL&lt;std::__cxx11::basic_string&lt;char, std::char_traits&lt;char&gt;, std::allocator&lt;char&gt; &gt;, unsigned long long&gt;::Deserialize(std::basic_ifstream&lt;char, std::char_traits&lt;char&gt; &gt;&amp;)</text>
<text text-anchor="middle" x="797.5" y="-213" font-family="Arial" font-size="10.00" fill="#ffffff">78.78%</text>
<text text-anchor="middle" x="797.5" y="-202" font-family="Arial" font-size="10.00" fill="#ffffff">(0.00%)</text>
<text text-anchor="middle" x="797.5" y="-191" font-family="Arial" font-size="10.00" fill="#ffffff">3044×</text>
</g>
<!-- 1&#45;&gt;2 -->
<g id="edge1" class="edge">
<title>1&#45;&gt;2</title>
<path fill="none" stroke="#dfbe05" stroke-width="3.15" d="M2171.32,-293.98C2054.3,-286.91 1553.85,-256.68 1190.68,-234.75"/>
<polygon fill="#dfbe05" stroke="#dfbe05" stroke-width="3.15" points="1190.66,-231.63 1181.59,-234.2 1190.29,-237.85 1190.66,-231.63"/>
<text text-anchor="middle" x="1721.5" y="-259" font-family="Arial" font-size="10.00" fill="#dfbe05">78.78%</text>
<text text-anchor="middle" x="1721.5" y="-248" font-family="Arial" font-size="10.00" fill="#dfbe05">3044×</text>
</g>
<!-- 5 -->
<g id="node3" class="node">
<title>5</title>
<polygon fill="#0d4682" stroke="#0d4682" points="1995.5,-236 1235.5,-236 1235.5,-184 1995.5,-184 1995.5,-236"/>
<text text-anchor="middle" x="1615.5" y="-224" font-family="Arial" font-size="10.00" fill="#ffffff">TAVL&lt;std::__cxx11::basic_string&lt;char, std::char_traits&lt;char&gt;, std::allocator&lt;char&gt; &gt;, unsigned long long&gt;::Serialize(std::basic_ofstream&lt;char, std::char_traits&lt;char&gt; &gt;&amp;)</text>
<text text-anchor="middle" x="1615.5" y="-213" font-family="Arial" font-size="10.00" fill="#ffffff">12.12%</text>
<text text-anchor="middle" x="1615.5" y="-202" font-family="Arial" font-size="10.00" fill="#ffffff">(0.00%)</text>
<text text-anchor="middle" x="1615.5" y="-191" font-family="Arial" font-size="10.00" fill="#ffffff">3124×</text>
</g>
<!-- 1&#45;&gt;5 -->
<g id="edge2" class="edge">
<title>1&#45;&gt;5</title>
<path fill="none" stroke="#0d4682" stroke-width="0.5" d="M2171.16,-291.81C2106.05,-282.35 1928.39,-256.51 1791.31,-236.57"/>
<polygon fill="#0d4682" stroke="#0d4682" stroke-width="0.5" points="1791.32,-235.33 1787.68,-236.04 1790.96,-237.76 1791.32,-235.33"/>
<text text-anchor="middle" x="2009.5" y="-259" font-family="Arial" font-size="10.00" fill="#0d4682">12.12%</text>
<text text-anchor="middle" x="2009.5" y="-248" font-family="Arial" font-size="10.00" fill="#0d4682">3124×</text>
</g>
<!-- 8 -->
<g id="node4" class="node">
<title>8</title>
<polygon fill="#0d1a77" stroke="#0d1a77" points="2776,-236 2005,-236 2005,-184 2776,-184 2776,-236"/>
<text text-anchor="middle" x="2390.5" y="-224" font-family="Arial" font-size="10.00" fill="#ffffff">bool std::operator==&lt;char, std::char_traits&lt;char&gt;, std::allocator&lt;char&gt; &gt;(std::__cxx11::basic_string&lt;char, std::char_traits&lt;char&gt;, std::allocator&lt;char&gt; &gt; const&amp;, char const*)</text>
<text text-anchor="middle" x="2390.5" y="-213" font-family="Arial" font-size="10.00" fill="#ffffff">3.03%</text>
<text text-anchor="middle" x="2390.5" y="-202" font-family="Arial" font-size="10.00" fill="#ffffff">(3.03%)</text>
<text text-anchor="middle" x="2390.5" y="-191" font-family="Arial" font-size="10.00" fill="#ffffff">71799×</text>
</g>
<!-- 1&#45;&gt;8 -->
<g id="edge3" class="edge">
<title>1&#45;&gt;8</title>
<path fill="none" stroke="#0d1a77" stroke-width="0.5" d="M2221.61,-278.15C2222.91,-277.4 2224.21,-276.68 2225.5,-276 2253.4,-261.35 2285.36,-248.02 2313.67,-237.31"/>
<polygon fill="#0d1a77" stroke="#0d1a77" stroke-width="0.5" points="2314.27,-238.39 2317.11,-236.01 2313.4,-236.1 2314.27,-238.39"/>
<text text-anchor="middle" x="2309" y="-259" font-family="Arial" font-size="10.00" fill="#0d1a77">3.03%</text>
<text text-anchor="middle" x="2309" y="-248" font-family="Arial" font-size="10.00" fill="#0d1a77">71799×</text>
</g>
<!-- 9 -->
<g id="node5" class="node">
<title>9</title>
<polygon fill="#0d1a77" stroke="#0d1a77" points="3308,-236 2785,-236 2785,-184 3308,-184 3308,-236"/>
<text text-anchor="middle" x="3046.5" y="-224" font-family="Arial" font-size="10.00" fill="#ffffff">TAVL&lt;std::__cxx11::basic_string&lt;char, std::char_traits&lt;char&gt;, std::allocator&lt;char&gt; &gt;, unsigned long long&gt;::~TAVL()</text>
<text text-anchor="middle" x="3046.5" y="-213" font-family="Arial" font-size="10.00" fill="#ffffff">3.03%</text>
<text text-anchor="middle" x="3046.5" y="-202" font-family="Arial" font-size="10.00" fill="#ffffff">(3.03%)</text>
<text text-anchor="middle" x="3046.5" y="-191" font-family="Arial" font-size="10.00" fill="#ffffff">1×</text>
</g>
<!-- 1&#45;&gt;9 -->
<g id="edge4" class="edge">
<title>1&#45;&gt;9</title>
<path fill="none" stroke="#0d1a77" stroke-width="0.5" d="M2221.73,-277.5C2222.98,-276.94 2224.24,-276.43 2225.5,-276 2232.81,-273.48 2772.8,-236.64 2780.5,-236 2780.67,-235.99 2780.85,-235.97 2781.02,-235.96"/>
<polygon fill="#0d1a77" stroke="#0d1a77" stroke-width="0.5" points="2781.29,-237.16 2784.67,-235.65 2781.08,-234.72 2781.29,-237.16"/>
<text text-anchor="middle" x="2658.5" y="-259" font-family="Arial" font-size="10.00" fill="#0d1a77">3.03%</text>
<text text-anchor="middle" x="2658.5" y="-248" font-family="Arial" font-size="10.00" fill="#0d1a77">1×</text>
</g>
<!-- 3 -->
<g id="node6" class="node">
<title>3</title>
<polygon fill="#dfbe05" stroke="#dfbe05" points="933.5,-144 121.5,-144 121.5,-92 933.5,-92 933.5,-144"/>
<text text-anchor="middle" x="527.5" y="-132" font-family="Arial" font-size="10.00" fill="#ffffff">TAVL&lt;std::__cxx11::basic_string&lt;char, std::char_traits&lt;char&gt;, std::allocator&lt;char&gt; &gt;, unsigned long long&gt;::DeserializeRecursive(std::basic_ifstream&lt;char, std::char_traits&lt;char&gt; &gt;&amp;)</text>
<text text-anchor="middle" x="527.5" y="-121" font-family="Arial" font-size="10.00" fill="#ffffff">78.78%</text>
<text text-anchor="middle" x="527.5" y="-110" font-family="Arial" font-size="10.00" fill="#ffffff">(72.73%)</text>
<text text-anchor="middle" x="527.5" y="-99" font-family="Arial" font-size="10.00" fill="#ffffff">9240038×</text>
</g>
<!-- 2&#45;&gt;3 -->
<g id="edge5" class="edge">
<title>2&#45;&gt;3</title>
<path fill="none" stroke="#dfbe05" stroke-width="3.15" d="M722.29,-183.93C687.91,-172.47 647.05,-158.85 611.65,-147.05"/>
<polygon fill="#dfbe05" stroke="#dfbe05" stroke-width="3.15" points="612.2,-143.95 602.77,-144.09 610.23,-149.86 612.2,-143.95"/>
<text text-anchor="middle" x="712.5" y="-167" font-family="Arial" font-size="10.00" fill="#dfbe05">78.78%</text>
<text text-anchor="middle" x="712.5" y="-156" font-family="Arial" font-size="10.00" fill="#dfbe05">3044×</text>
</g>
<!-- 4 -->
<g id="node8" class="node">
<title>4</title>
<polygon fill="#0d4682" stroke="#0d4682" points="2317.5,-144 1003.5,-144 1003.5,-92 2317.5,-92 2317.5,-144"/>
<text text-anchor="middle" x="1660.5" y="-132" font-family="Arial" font-size="10.00" fill="#ffffff">TAVL&lt;std::__cxx11::basic_string&lt;char, std::char_traits&lt;char&gt;, std::allocator&lt;char&gt; &gt;, unsigned long long&gt;::SerializeRecursive(TAVL&lt;std::__cxx11::basic_string&lt;char, std::char_traits&lt;char&gt;, std::allocator&lt;char&gt; &gt;, unsigned long long&gt;::TNode*, std::basic_ofstream&lt;char, std::char_traits&lt;char&gt; &gt;&amp;)</text>
<text text-anchor="middle" x="1660.5" y="-121" font-family="Arial" font-size="10.00" fill="#ffffff">12.12%</text>
<text text-anchor="middle" x="1660.5" y="-110" font-family="Arial" font-size="10.00" fill="#ffffff">(12.12%)</text>
<text text-anchor="middle" x="1660.5" y="-99" font-family="Arial" font-size="10.00" fill="#ffffff">9690578×</text>
</g>
<!-- 5&#45;&gt;4 -->
<g id="edge9" class="edge">
<title>5&#45;&gt;4</title>
<path fill="none" stroke="#0d4682" stroke-width="0.5" d="M1628.04,-183.93C1633.69,-172.61 1640.4,-159.19 1646.25,-147.5"/>
<polygon fill="#0d4682" stroke="#0d4682" stroke-width="0.5" points="1647.41,-147.93 1647.88,-144.25 1645.22,-146.83 1647.41,-147.93"/>
<text text-anchor="middle" x="1660.5" y="-167" font-family="Arial" font-size="10.00" fill="#0d4682">12.12%</text>
<text text-anchor="middle" x="1660.5" y="-156" font-family="Arial" font-size="10.00" fill="#0d4682">3124×</text>
</g>
<!-- 3&#45;&gt;3 -->
<g id="edge6" class="edge">
<title>3&#45;&gt;3</title>
<path fill="none" stroke="#dfbe05" stroke-width="3.15" d="M933.75,-121.25C939.42,-120.3 942.5,-119.21 942.5,-118 942.5,-117.85 942.45,-117.7 942.36,-117.55"/>
<polygon fill="#dfbe05" stroke="#dfbe05" stroke-width="3.15" points="943.18,-114.54 933.75,-114.75 941.25,-120.47 943.18,-114.54"/>
<text text-anchor="middle" x="964" y="-115.5" font-family="Arial" font-size="10.00" fill="#dfbe05">9236994×</text>
</g>
<!-- 6 -->
<g id="node7" class="node">
<title>6</title>
<polygon fill="#0d277b" stroke="#0d277b" points="1055,-52 0,-52 0,0 1055,0 1055,-52"/>
<text text-anchor="middle" x="527.5" y="-40" font-family="Arial" font-size="10.00" fill="#ffffff">TAVL&lt;std::__cxx11::basic_string&lt;char, std::char_traits&lt;char&gt;, std::allocator&lt;char&gt; &gt;, unsigned long long&gt;::TNode::TNode(std::__cxx11::basic_string&lt;char, std::char_traits&lt;char&gt;, std::allocator&lt;char&gt; &gt; const&amp;, unsigned long long const&amp;)</text>
<text text-anchor="middle" x="527.5" y="-29" font-family="Arial" font-size="10.00" fill="#ffffff">6.06%</text>
<text text-anchor="middle" x="527.5" y="-18" font-family="Arial" font-size="10.00" fill="#ffffff">(6.06%)</text>
<text text-anchor="middle" x="527.5" y="-7" font-family="Arial" font-size="10.00" fill="#ffffff">4624519×</text>
</g>
<!-- 3&#45;&gt;6 -->
<g id="edge7" class="edge">
<title>3&#45;&gt;6</title>
<path fill="none" stroke="#0d277b" stroke-width="0.5" d="M527.5,-91.93C527.5,-80.71 527.5,-67.42 527.5,-55.8"/>
<polygon fill="#0d277b" stroke="#0d277b" stroke-width="0.5" points="528.73,-55.75 527.5,-52.25 526.28,-55.75 528.73,-55.75"/>
<text text-anchor="middle" x="549" y="-75" font-family="Arial" font-size="10.00" fill="#0d277b">6.05%</text>
<text text-anchor="middle" x="549" y="-64" font-family="Arial" font-size="10.00" fill="#0d277b">4618497×</text>
</g>
<!-- 4&#45;&gt;4 -->
<g id="edge8" class="edge">
<title>4&#45;&gt;4</title>
<path fill="none" stroke="#0d4682" stroke-width="0.5" d="M2317.9,-120.6C2323.51,-119.81 2326.5,-118.94 2326.5,-118 2326.5,-117.29 2324.82,-116.63 2321.61,-116.01"/>
<polygon fill="#0d4682" stroke="#0d4682" stroke-width="0.5" points="2321.56,-114.76 2317.9,-115.4 2321.16,-117.18 2321.56,-114.76"/>
<text text-anchor="middle" x="2348" y="-115.5" font-family="Arial" font-size="10.00" fill="#0d4682">9687454×</text>
</g>
<!-- 7 -->
<g id="node9" class="node">
<title>7</title>
<polygon fill="#0d1a77" stroke="#0d1a77" points="2280.5,-317 2230.5,-317 2230.5,-276 2280.5,-276 2280.5,-317"/>
<text text-anchor="middle" x="2255.5" y="-305" font-family="Arial" font-size="10.00" fill="#ffffff">_init</text>
<text text-anchor="middle" x="2255.5" y="-294" font-family="Arial" font-size="10.00" fill="#ffffff">3.03%</text>
<text text-anchor="middle" x="2255.5" y="-283" font-family="Arial" font-size="10.00" fill="#ffffff">(3.03%)</text>
</g>
</g>
</svg>
